<svg width="1254" height="1254" viewBox="0 0 1254 1254" fill="none" xmlns="http://www.w3.org/2000/svg">
<g clip-path="url(#clip0_66_26)">
<path d="M0 0C413.82 0 827.64 0 1254 0C1254 413.82 1254 827.64 1254 1254C840.18 1254 426.36 1254 0 1254C0 840.18 0 426.36 0 0Z" fill="#4D45FC"/>
<path d="M835 441C835.782 441.393 836.565 441.785 837.371 442.189C869.339 458.37 899.216 478.686 927.395 500.747C929.111 502.087 930.834 503.417 932.559 504.746C938.775 509.559 944.775 514.482 950.562 519.812C953.2 522.18 955.926 524.404 958.688 526.625C962.468 529.684 965.961 532.837 969.336 536.332C971.09 538.091 972.924 539.699 974.812 541.312C979.802 545.613 984.379 550.311 989 555C992.122 558.133 995.259 561.249 998.398 564.363C1000.06 566.013 1001.72 567.663 1003.38 569.312C1004.2 570.129 1005.02 570.946 1005.88 571.787C1010.8 576.692 1015.49 581.711 1020 587C1020.98 588.13 1021.97 589.259 1022.96 590.387C1029.12 597.496 1035.05 604.721 1040.69 612.261C1042.14 614.182 1043.62 616.077 1045.1 617.973C1046.13 619.315 1047.16 620.657 1048.19 622C1048.68 622.623 1049.18 623.246 1049.69 623.888C1053.05 628.355 1053.05 628.355 1052.79 631.452C1051.96 634.131 1050.97 635.841 1049.3 638.082C1048.45 639.221 1048.45 639.221 1047.6 640.382C1046.99 641.184 1046.38 641.986 1045.75 642.812C1045.12 643.651 1044.49 644.49 1043.85 645.354C1035.87 655.937 1027.47 666.163 1018.88 676.25C1018.44 676.756 1018.01 677.261 1017.57 677.782C1007.9 689.024 997.578 699.582 987.083 710.047C984.802 712.323 982.527 714.603 980.252 716.885C978.779 718.357 977.306 719.829 975.832 721.301C975.164 721.971 974.496 722.641 973.808 723.331C969.366 727.752 964.756 731.92 960 736C958.882 736.973 957.765 737.947 956.648 738.922C949.241 745.338 941.682 751.504 933.931 757.499C931.838 759.126 929.758 760.769 927.68 762.414C918.04 770.021 908.233 777.214 898 784C897.148 784.568 896.296 785.137 895.418 785.722C873.008 800.643 850.048 813.894 826 826C825.111 826.455 824.221 826.909 823.305 827.378C806.438 835.976 788.717 842.408 771 849C769.651 849.509 768.303 850.017 766.954 850.526C754.173 855.315 741.26 858.879 728 862.062C727.092 862.281 726.184 862.5 725.249 862.726C672.084 875.5 616.646 878.661 562.727 868.497C559.861 867.975 556.989 867.508 554.113 867.047C537.819 864.352 521.834 860.327 506.287 854.776C503.494 853.828 500.676 852.986 497.852 852.137C490.859 850.001 484.021 847.533 477.188 844.938C476.567 844.702 475.946 844.467 475.306 844.224C462.603 839.389 450.24 833.91 438 828C437.25 827.638 436.5 827.276 435.727 826.903C431.779 824.986 427.861 823.018 423.96 821.007C421.908 819.953 419.847 818.918 417.785 817.883C395.148 806.381 373.752 792.588 353 778C351.675 777.077 350.349 776.154 349.023 775.23C340.779 769.451 332.85 763.3 325 757C324.363 756.491 323.726 755.981 323.07 755.457C315.589 749.466 308.195 743.384 300.938 737.125C300.343 736.614 299.748 736.103 299.135 735.577C296.17 732.999 293.325 730.354 290.566 727.555C288.193 725.147 285.758 722.884 283.191 720.684C278.206 716.378 273.583 711.729 268.938 707.062C267.649 705.78 267.649 705.78 266.334 704.471C261.897 700.027 257.604 695.521 253.513 690.758C251.44 688.349 249.282 686.022 247.125 683.688C235.012 670.373 224.024 655.961 213.75 641.188C213.284 640.524 212.818 639.861 212.338 639.177C208.336 633.338 208.336 633.338 208 630C209.029 627.976 209.029 627.976 210.648 625.84C211.532 624.657 211.532 624.657 212.433 623.451C213.074 622.622 213.715 621.792 214.375 620.938C215.02 620.083 215.666 619.229 216.331 618.35C221.074 612.107 225.964 606.009 231 600C232.438 598.208 233.875 596.417 235.312 594.625C239.226 589.834 243.346 585.276 247.575 580.766C250.156 578.014 252.669 575.227 255.121 572.359C259.626 567.186 264.485 562.365 269.343 557.527C270.935 555.94 272.521 554.348 274.107 552.756C279.018 547.842 283.966 543.022 289.25 538.505C292.014 536.128 294.654 533.619 297.312 531.125C302.132 526.641 307.075 522.384 312.211 518.262C314.687 516.254 317.114 514.199 319.53 512.12C337.88 496.36 357.708 482.144 378 469C378.701 468.543 379.403 468.086 380.125 467.615C393.103 459.186 406.427 451.429 420 444C420.567 443.689 421.134 443.378 421.718 443.058C430.86 438.062 440.119 433.455 449.625 429.188C450.28 428.892 450.935 428.597 451.609 428.292C465.833 421.893 480.298 416.212 495 411C496.15 410.591 497.301 410.182 498.486 409.76C508.727 406.228 519.112 403.526 529.625 400.938C530.505 400.719 531.385 400.501 532.292 400.275C544.482 397.253 556.668 394.353 569.069 392.317C570.824 392.029 572.574 391.715 574.324 391.398C577.544 390.846 580.758 390.403 584 390C584.7 389.91 585.399 389.82 586.12 389.727C672.033 379.117 758.662 402.658 835 441Z" fill="#FDFDFD"/>
<path d="M735.388 491.651C735.92 492.096 736.452 492.541 737 493C737.893 493.746 738.787 494.493 739.707 495.262C742.206 497.446 744.61 499.697 747 502C747.533 502.508 748.067 503.015 748.616 503.538C777.827 531.445 800.077 571.874 801.161 613.095C801.181 614.539 801.194 615.982 801.203 617.426C801.21 618.207 801.217 618.988 801.224 619.793C801.242 622.3 801.248 624.806 801.25 627.312C801.251 628.167 801.252 629.021 801.253 629.902C801.243 642.206 800.798 653.972 798 666C797.729 667.324 797.459 668.648 797.191 669.973C788.043 712.66 759.518 751.061 723.353 774.799C696.076 792.217 665.131 802.189 632.749 802.185C630.533 802.187 628.318 802.206 626.102 802.225C582.262 802.399 540.448 784.851 509.188 754.16C508.364 753.341 508.364 753.341 507.523 752.504C506.207 751.205 504.857 749.941 503.5 748.684C488.214 734.298 477.152 715.174 469 696C468.604 695.079 468.604 695.079 468.2 694.14C461.225 677.654 456.887 659.459 456.797 641.543C456.791 640.641 456.785 639.739 456.78 638.81C456.77 636.903 456.764 634.996 456.76 633.089C456.75 630.234 456.719 627.38 456.688 624.525C456.602 609.683 458.063 595.379 462.188 581.063C462.394 580.336 462.601 579.61 462.813 578.862C475.942 534.697 506.858 497.256 547.057 475.088C606.65 443.218 682.564 448.104 735.388 491.651Z" fill="#4E46FC"/>
<path d="M605 210C605 231.45 605 252.9 605 275C593.615 275.99 593.615 275.99 582 277C577.545 277.99 577.545 277.99 573 279C570.927 279.305 568.853 279.609 566.776 279.886C532.27 284.59 498.639 297.807 468 314C467.301 314.365 466.603 314.731 465.883 315.107C442.341 327.491 420.931 343.457 401 361C399.689 362.143 399.689 362.143 398.352 363.309C396.563 364.868 394.78 366.432 393 368C387.608 363.502 382.606 358.739 377.66 353.758C376.893 352.989 376.126 352.221 375.336 351.429C372.909 348.997 370.486 346.561 368.062 344.125C366.408 342.466 364.754 340.807 363.1 339.148C359.064 335.102 355.031 331.052 351 327C352.905 322.849 355.714 319.983 358.938 316.812C359.52 316.235 360.103 315.658 360.703 315.063C365.006 310.853 369.488 306.966 374.211 303.23C376.706 301.235 379.123 299.17 381.53 297.071C389.585 290.084 398.174 283.969 407 278C408.029 277.304 408.029 277.304 409.078 276.594C425.065 265.854 441.789 256.207 459.159 247.884C460.948 247.025 462.73 246.149 464.512 245.273C481.385 237.143 499.074 230.419 517 225C517.909 224.724 518.819 224.449 519.755 224.165C547.047 216.044 576.444 210 605 210Z" fill="#FCFBFD"/>
<path d="M653 210C673.716 211.151 673.716 211.151 680.219 212.27C681.348 212.453 681.348 212.453 682.501 212.64C684.06 212.895 685.619 213.155 687.177 213.419C689.498 213.812 691.821 214.189 694.145 214.564C708.189 216.867 722.3 219.452 735.812 224C737.42 224.527 739.028 225.053 740.637 225.578C741.767 225.95 741.767 225.95 742.919 226.33C745.636 227.205 748.38 227.971 751.125 228.75C762.006 232.08 772.492 236.663 783 241C783.789 241.324 784.578 241.648 785.391 241.982C831.337 260.978 871.223 290.946 907 325C905.475 328.42 903.724 330.256 900.73 332.559C898.331 334.557 896.201 336.785 894 339C892.924 340.077 891.847 341.154 890.77 342.23C890.19 342.81 889.61 343.39 889.012 343.988C881.008 351.992 873.004 359.996 865 368C864.287 367.387 864.287 367.387 863.559 366.762C862.932 366.225 862.306 365.687 861.66 365.133C860.73 364.335 860.73 364.335 859.781 363.521C856.098 360.377 852.334 357.333 848.572 354.285C846.97 352.975 845.385 351.647 843.801 350.316C821.765 332.013 795.061 313.828 767.98 303.758C766 303 766 303 763.125 301.5C759.315 299.671 755.417 298.431 751.391 297.16C748.69 296.236 746.117 295.222 743.488 294.121C737.12 291.548 730.562 289.785 723.938 288C722.645 287.648 721.352 287.297 720.06 286.945C701.735 281.919 701.735 281.919 683 279C680.36 278.34 677.72 277.68 675 277C667.74 276.34 660.48 275.68 653 275C653 253.55 653 232.1 653 210Z" fill="#FCFCFD"/>
<path d="M518 948C521.501 948.653 524.871 949.501 528.281 950.523C529.289 950.822 530.297 951.122 531.336 951.43C533.414 952.051 535.493 952.673 537.57 953.297C549.986 956.975 562.358 959.524 575.165 961.308C577.432 961.624 579.698 961.952 581.963 962.281C597.276 964.474 612.407 965.187 627.866 965.185C630.731 965.187 633.596 965.206 636.461 965.225C650.413 965.268 664.393 964.857 677.999 961.46C681.988 960.543 686.069 960.144 690.125 959.625C699.923 958.287 709.157 956.087 718.615 953.203C720.516 952.624 722.42 952.05 724.324 951.482C726.202 950.92 728.076 950.345 729.945 949.755C730.803 949.498 731.66 949.241 732.543 948.977C733.688 948.622 733.688 948.622 734.856 948.26C737.553 947.933 738.755 948.526 741 950C742.125 951.848 742.125 951.848 743 954.062C743.33 954.868 743.66 955.674 744 956.504C744.33 957.328 744.66 958.151 745 959C745.66 960.503 746.327 962.003 747 963.5C755 981.5 755 981.5 755.984 983.727C756.692 985.31 757.411 986.888 758.141 988.461C758.69 989.656 758.69 989.656 759.25 990.875C759.585 991.594 759.92 992.314 760.266 993.055C761 995 761 995 761 998C739.996 1005.02 718.86 1011.06 697 1014.75C695.9 1014.94 694.801 1015.12 693.668 1015.31C689.785 1015.93 685.897 1016.48 682 1017C681.057 1017.13 680.114 1017.25 679.143 1017.38C662.012 1019.62 645.143 1020.53 627.875 1020.44C626.688 1020.44 625.501 1020.43 624.278 1020.43C599.288 1020.36 575.512 1017.74 551 1013C550.025 1012.81 549.05 1012.63 548.046 1012.44C511.849 1005.42 511.849 1005.42 497 998C497.597 992.766 499.304 988.56 501.457 983.82C501.801 983.049 502.146 982.277 502.5 981.482C503.598 979.027 504.705 976.576 505.812 974.125C506.546 972.486 507.278 970.847 508.01 969.207C508.721 967.62 509.432 966.032 510.145 964.445C510.471 963.718 510.797 962.991 511.133 962.241C513.307 957.432 515.615 952.708 518 948Z" fill="#FBFBFD"/>
<path d="M636.75 507.063C641.827 510.089 645.831 514.444 648 520C648.184 522.76 648.26 525.419 648.24 528.177C648.242 528.999 648.244 529.821 648.246 530.667C648.249 532.449 648.248 534.23 648.244 536.012C648.238 538.832 648.247 541.652 648.261 544.473C648.298 552.491 648.317 560.509 648.305 568.527C648.3 573.433 648.318 578.339 648.351 583.246C648.359 585.115 648.358 586.983 648.347 588.852C648.333 591.466 648.349 594.079 648.372 596.693C648.361 597.464 648.349 598.234 648.337 599.028C648.406 603.032 648.807 604.769 651.41 607.882C652.265 608.581 653.12 609.28 654 610C658.855 615.149 662.111 621.926 662.125 629.062C662.481 633.095 664.439 634.769 667.375 637.438C669.232 638.98 671.108 640.5 673 642C674.834 643.499 676.667 644.999 678.5 646.5C679.877 647.614 679.877 647.614 681.281 648.75C684.778 651.644 688.115 654.693 691.469 657.75C694.088 660.079 696.775 662.296 699.5 664.5C704.014 668.154 708.355 671.953 712.645 675.867C714.856 677.869 717.107 679.813 719.375 681.75C724.382 686.13 727.551 689.602 728.238 696.332C728.424 702.541 727.735 705.987 724 711C720.504 714.514 716.707 717.692 711.668 718.266C710.849 718.26 710.031 718.255 709.188 718.25C708.377 718.255 707.566 718.26 706.73 718.266C699.55 717.567 695.352 715.153 690.188 710.438C689.579 709.9 688.971 709.362 688.344 708.807C686.552 707.217 684.774 705.612 683 704C681.643 702.774 681.643 702.774 680.258 701.523C678.641 700.062 677.027 698.598 675.414 697.133C672.895 694.907 670.307 692.794 667.688 690.688C662.883 686.804 658.368 682.687 653.863 678.466C649.411 674.32 644.794 670.452 640.047 666.645C638 665 638 665 637 664C635.007 663.924 633.013 663.853 631.018 663.811C622.614 663.602 616.111 662.877 609 658C608.092 657.443 607.185 656.886 606.25 656.312C599.485 649.359 595.72 640.801 595.688 631.125C595.822 622.614 597.809 616.87 603 610C604.284 608.925 604.284 608.925 605.595 607.828C608.66 604.224 608.693 601.46 608.612 596.94C608.617 596.143 608.623 595.345 608.629 594.524C608.642 591.894 608.622 589.266 608.602 586.637C608.607 584.802 608.615 582.968 608.626 581.133C608.649 576.304 608.644 571.476 608.632 566.647C608.614 558.93 608.624 551.213 608.658 543.495C608.664 540.808 608.651 538.12 608.636 535.433C608.639 533.771 608.643 532.11 608.647 530.448C608.633 529.339 608.633 529.339 608.619 528.207C608.665 522.091 609.869 516.505 613.938 511.723C614.618 511.175 615.299 510.627 616 510.063C616.681 509.497 617.361 508.931 618.062 508.348C623.516 504.554 630.657 505.336 636.75 507.063Z" fill="#FBFBFD"/>
<path d="M324 355C329.214 359.354 334.06 363.939 338.832 368.77C339.55 369.491 340.268 370.213 341.007 370.956C343.278 373.239 345.546 375.525 347.812 377.812C350.816 380.843 353.823 383.87 356.832 386.895C357.522 387.592 358.211 388.29 358.922 389.009C359.56 389.65 360.197 390.292 360.855 390.952C361.696 391.801 361.696 391.801 362.554 392.667C363.981 394.106 363.981 394.106 366 395C364.334 398.708 362.014 401.863 359.625 405.125C345.49 424.724 333.382 445.117 322.312 466.586C321.542 468.058 320.772 469.529 320 471C319.526 471.915 319.051 472.83 318.562 473.773C316.456 476.775 313.824 478.96 311 481.25C310.424 481.727 309.848 482.205 309.255 482.697C307.51 484.14 305.757 485.572 304 487C303.027 487.791 302.054 488.583 301.051 489.398C299.695 490.501 299.695 490.501 298.312 491.625C293.857 495.252 289.568 499.027 285.32 502.895C283.298 504.729 281.253 506.528 279.188 508.312C269.465 516.807 260.177 525.701 251.094 534.871C250.309 535.662 250.309 535.662 249.508 536.468C248.515 537.477 247.53 538.494 246.555 539.52C245.406 540.716 244.207 541.863 243 543C242.34 543 241.68 543 241 543C240.67 543.99 240.34 544.98 240 546C239.34 546 238.68 546 238 546C247.736 481.093 276.924 402.076 324 355Z" fill="#FBFBFD"/>
<path d="M933.836 356.582C943.164 362.694 950.01 376.697 956 386C956.412 386.638 956.825 387.276 957.25 387.934C980.327 423.774 1025.11 495.616 1016.55 539.311C1016.28 540.147 1016.28 540.147 1016 541C1015.47 540.461 1014.93 539.922 1014.38 539.367C1011.92 536.888 1009.46 534.413 1007 531.938C1006.16 531.09 1005.32 530.242 1004.46 529.369C1000.05 524.946 995.591 520.672 990.854 516.607C987.884 514.033 985.046 511.321 982.187 508.625C977.222 503.978 972.147 499.557 966.836 495.305C962.922 492.124 959.118 488.821 955.336 485.485C952.517 483.028 949.804 480.875 946.641 478.855C935.674 471.785 931.849 461.615 926.475 450.054C917.874 432.248 906.007 415.055 893.198 400.032C892 398 892 398 892.208 396.113C893.192 393.489 894.492 392.14 896.478 390.165C897.58 389.059 897.58 389.059 898.703 387.931C899.501 387.146 900.299 386.36 901.121 385.551C901.936 384.738 902.751 383.924 903.591 383.086C905.315 381.369 907.043 379.655 908.774 377.945C911.43 375.319 914.076 372.683 916.721 370.045C918.395 368.38 920.07 366.715 921.746 365.051C922.542 364.259 923.338 363.468 924.158 362.652C924.895 361.924 925.633 361.196 926.392 360.447C927.042 359.804 927.692 359.161 928.362 358.498C931.327 355.787 931.327 355.787 933.836 356.582Z" fill="#FBFBFD"/>
<path d="M863 874C866.149 875.206 868.22 876.975 870.575 879.348C871.596 880.369 871.596 880.369 872.637 881.41C873.36 882.144 874.083 882.877 874.828 883.633C875.577 884.385 876.326 885.136 877.098 885.911C879.487 888.311 881.868 890.718 884.25 893.125C885.869 894.754 887.489 896.383 889.109 898.012C893.078 902.003 897.041 905.999 901 910C897.013 918.331 888.818 924.024 881.711 929.644C880.499 930.605 879.291 931.57 878.086 932.54C861.636 945.765 844.224 957.373 826 968C825.002 968.601 824.005 969.201 822.977 969.82C817.222 973.261 811.36 976.42 805.375 979.438C804.675 979.792 803.975 980.147 803.254 980.512C798.247 983 798.247 983 796 983C795.714 982.347 795.428 981.695 795.133 981.022C793.777 977.931 792.42 974.841 791.062 971.75C790.568 970.624 790.074 969.497 789.565 968.337C787.174 962.898 784.769 957.467 782.301 952.062C781.89 951.162 781.479 950.261 781.056 949.333C780.286 947.648 779.511 945.965 778.731 944.284C777.019 940.538 775.545 937.126 775 933C776.709 932.126 776.709 932.126 778.453 931.234C796.383 921.983 813.623 911.797 830 900C830.989 899.289 830.989 899.289 831.999 898.563C841.096 891.982 849.689 884.972 858.086 877.52C861 875 861 875 863 874Z" fill="#FBFBFD"/>
<path d="M393 874C396.357 875.61 398.952 877.476 401.812 879.875C402.803 880.691 403.793 881.507 404.812 882.348C406.89 884.069 408.947 885.808 411 887.559C429.164 902.795 449.89 916.245 471 927C471.626 927.322 472.253 927.643 472.898 927.975C476.247 929.688 479.612 931.366 483 933C481.592 937.474 479.867 941.681 477.918 945.945C477.622 946.596 477.326 947.248 477.021 947.918C476.079 949.989 475.134 952.057 474.188 954.125C472.949 956.835 471.714 959.546 470.48 962.258C470.181 962.914 469.882 963.57 469.573 964.246C467.243 969.383 465.096 974.583 463.036 979.835C462 982 462 982 460 983C457.935 982.234 457.935 982.234 455.363 980.965C454.405 980.492 453.447 980.02 452.459 979.533C450.902 978.743 450.902 978.743 449.312 977.938C448.241 977.397 447.17 976.856 446.066 976.299C413.145 959.412 383.989 937.141 357 912C358.376 908.908 359.952 906.804 362.348 904.425C363.029 903.744 363.709 903.064 364.41 902.363C365.144 901.64 365.877 900.917 366.633 900.172C367.385 899.423 368.136 898.674 368.911 897.902C371.311 895.513 373.718 893.132 376.125 890.75C377.754 889.131 379.383 887.511 381.012 885.891C385.003 881.922 388.999 877.959 393 874Z" fill="#FBFBFD"/>
<path d="M247 730C251.195 733.466 255.112 737.065 258.938 740.938C262.452 744.489 266.03 747.862 269.828 751.105C271.97 752.974 274.047 754.903 276.122 756.846C282.044 762.376 288.225 767.437 294.637 772.387C297.602 774.676 300.495 777.041 303.375 779.438C307.817 783.088 312.349 786.6 316.938 790.062C317.625 790.584 318.312 791.106 319.02 791.644C322.949 794.591 326.919 797.123 331.188 799.562C338.255 804.169 342.116 810.914 346.609 817.867C350.018 823.125 353.757 828.073 357.625 833C358.513 834.139 358.513 834.139 359.419 835.3C361.827 838.359 364.201 841.289 367 844C365.629 847.07 364.063 849.194 361.699 851.575C361.029 852.256 360.358 852.936 359.667 853.637C358.943 854.36 358.219 855.083 357.473 855.828C356.728 856.577 355.983 857.326 355.216 858.098C353.642 859.677 352.066 861.254 350.488 862.828C348.066 865.246 345.659 867.677 343.252 870.109C341.722 871.641 340.192 873.173 338.66 874.703C337.938 875.434 337.216 876.165 336.472 876.919C335.798 877.587 335.124 878.254 334.43 878.942C333.543 879.83 333.543 879.83 332.638 880.736C331 882 331 882 328 882C324.654 878.647 321.884 874.754 319 871C318.539 870.406 318.078 869.811 317.603 869.199C305.995 854.199 295.407 838.472 286 822C285.547 821.207 285.093 820.413 284.626 819.596C275.229 803.034 266.879 785.983 259.894 768.26C259.119 766.302 258.316 764.355 257.508 762.41C254.554 755.26 251.957 748.065 249.625 740.688C249.362 739.857 249.099 739.026 248.829 738.17C247 732.27 247 732.27 247 730Z" fill="#FBFBFD"/>
<path d="M1009 731C1010.45 733.89 1009.45 735.293 1008.45 738.328C1007.9 739.976 1007.9 739.976 1007.35 741.658C1006.94 742.843 1006.54 744.029 1006.12 745.25C1005.71 746.467 1005.3 747.684 1004.88 748.938C1001.04 760.161 996.697 771.111 992 782C991.655 782.814 991.311 783.628 990.956 784.467C977.988 815.032 960.687 843.272 940.249 869.396C939.026 870.966 937.829 872.557 936.633 874.148C935.929 875.069 935.225 875.989 934.5 876.938C933.618 878.096 933.618 878.096 932.719 879.277C930.727 881.274 929.791 881.747 927 882C925.152 880.754 925.152 880.754 923.241 878.809C922.521 878.088 921.8 877.367 921.058 876.625C920.291 875.832 919.524 875.039 918.734 874.223C917.941 873.422 917.148 872.622 916.33 871.797C913.791 869.23 911.271 866.647 908.75 864.062C907.035 862.322 905.319 860.583 903.602 858.846C899.388 854.577 895.189 850.294 891 846C892.686 842.452 894.725 839.848 897.312 836.875C902.924 830.308 907.915 823.33 912.922 816.297C913.435 815.583 913.949 814.868 914.478 814.132C915.484 812.723 916.476 811.302 917.452 809.872C920.955 804.892 924.676 801.69 929.75 798.375C931.264 797.345 932.776 796.311 934.285 795.273C935.061 794.741 935.838 794.208 936.637 793.659C947.525 786.013 957.787 777.482 967.812 768.75C970.797 766.156 973.856 763.666 976.938 761.188C980.633 758.189 984.04 755.081 987.344 751.66C989.055 749.945 990.842 748.382 992.688 746.812C998.436 741.869 1003.68 736.397 1009 731Z" fill="#FBFBFD"/>
<path d="M899 913C899.99 913.33 900.98 913.66 902 914C899.36 916.64 896.72 919.28 894 922C893.01 921.67 892.02 921.34 891 921C893.64 918.36 896.28 915.72 899 913ZM889 922C889.66 922.33 890.32 922.66 891 923C887.763 927.249 884.469 930.371 880.125 933.473C878.66 934.526 877.223 935.62 875.812 936.746C874.761 937.583 874.761 937.583 873.688 938.438C872.734 939.209 872.734 939.209 871.762 939.996C871.18 940.327 870.599 940.659 870 941C869.01 940.67 868.02 940.34 867 940C867.918 939.287 868.836 938.574 869.781 937.84C876.342 932.726 882.844 927.602 889 922Z" fill="#564EFB"/>
<path d="M896 336C896.66 336.33 897.32 336.66 898 337C894.49 341.185 890.911 345.18 887 349C885.925 350.091 885.925 350.091 884.828 351.203C884.039 352.002 883.25 352.802 882.438 353.625C881.694 354.38 880.95 355.136 880.184 355.914C878.213 357.796 876.217 359.422 874 361C873.34 360.67 872.68 360.34 872 360C879.92 352.08 887.84 344.16 896 336Z" fill="#605AFB"/>
<path d="M1000 696C1000.99 696.33 1001.98 696.66 1003 697C997.186 702.909 991.411 708.729 985 714C984.34 713.67 983.68 713.34 983 713C988.61 707.39 994.22 701.78 1000 696Z" fill="#635BFA"/>
<path d="M74 56C74.66 56.33 75.32 56.66 76 57C74.2542 58.9414 72.5036 60.8782 70.75 62.8125C70.2589 63.3597 69.7677 63.9069 69.2617 64.4707C66.6827 67.3076 64.1937 69.8328 61 72C61 69 61 69 62.1934 67.4661C62.738 66.9371 63.2826 66.4082 63.8438 65.8633C64.4303 65.2864 65.0168 64.7096 65.6211 64.1152C66.2411 63.5203 66.8612 62.9254 67.5 62.3125C68.12 61.706 68.7401 61.0995 69.3789 60.4746C70.9126 58.9763 72.4555 57.4872 74 56Z" fill="#463EE4"/>
<path d="M181 1251C187.201 1250.72 192.932 1251.77 199 1253C199 1253.33 199 1253.66 199 1254C193.06 1254 187.12 1254 181 1254C181 1253.01 181 1252.02 181 1251Z" fill="#090922"/>
<path d="M982 714C982.33 714.99 982.66 715.98 983 717C979.7 720.3 976.4 723.6 973 727C972.34 726.34 971.68 725.68 971 725C974.63 721.37 978.26 717.74 982 714Z" fill="#5A52FB"/>
<path d="M558 282C557.01 282 556.02 282 555 282C555 282.66 555 283.32 555 284C549.513 285.868 544.778 286.236 539 286C542.085 284.334 545.127 283.262 548.5 282.313C549.438 282.041 550.377 281.769 551.344 281.488C554.008 280.999 555.476 281.113 558 282Z" fill="#6461FC"/>
<path d="M505 507C505.703 508.77 505.703 508.77 506 511C504.672 512.887 504.672 512.887 502.75 514.688C502.126 515.289 501.502 515.891 500.859 516.512C499 518 499 518 496 519C497.444 515.761 499.258 513.38 501.625 510.75C502.257 510.044 502.888 509.337 503.539 508.609C504.021 508.078 504.503 507.547 505 507Z" fill="#6157FB"/>
<path d="M270 515C270.66 515.33 271.32 515.66 272 516C270.925 517.299 269.84 518.589 268.75 519.875C268.147 520.594 267.543 521.314 266.922 522.055C265.029 523.971 263.463 524.964 261 526C262.408 522.785 264.103 520.678 266.625 518.25C267.257 517.636 267.888 517.023 268.539 516.391C269.021 515.932 269.503 515.473 270 515Z" fill="#5750FB"/>
<path d="M69 57C69.99 57.33 70.98 57.66 72 58C71.0735 59.1754 70.1334 60.3401 69.1875 61.5C68.6654 62.1497 68.1434 62.7994 67.6055 63.4688C66 65 66 65 63 65C63.999 62.0031 64.6513 60.9729 67 59C67.66 59 68.32 59 69 59C69 58.34 69 57.68 69 57Z" fill="#030213"/>
<path d="M957 737C957.66 737.33 958.32 737.66 959 738C953.906 744.705 953.906 744.705 950.125 745.938C949.424 745.958 948.723 745.979 948 746C951 743 954 740 957 737Z" fill="#5B55FB"/>
<path d="M1009 731C1010.6 734.201 1009.03 736.723 1008 740C1007.67 739.01 1007.34 738.02 1007 737C1005.68 737.99 1004.36 738.98 1003 740C1002.34 739.67 1001.68 739.34 1001 739C1003.64 736.36 1006.28 733.72 1009 731Z" fill="#E7E7FE"/>
<path d="M247 730C248.98 731.65 250.96 733.3 253 735C252.34 736.98 251.68 738.96 251 741C248.542 737.313 247.988 734.303 247 730Z" fill="#E5E5FD"/>
<path d="M361 851C361 855.353 358.938 856.928 356 860C353.828 860.68 353.828 860.68 352 861C352.936 859.894 353.874 858.791 354.812 857.688C355.335 857.073 355.857 856.458 356.395 855.824C357.872 854.146 359.4 852.561 361 851Z" fill="#5A54FA"/>
<path d="M239 538C239.33 538.66 239.66 539.32 240 540C240.99 539.67 241.98 539.34 243 539C243.33 539.99 243.66 540.98 244 542C243.01 542.33 242.02 542.66 241 543C240.67 543.99 240.34 544.98 240 546C239.34 546 238.68 546 238 546C238.33 543.36 238.66 540.72 239 538Z" fill="#D4D5FD"/>
<path d="M826 968C824.965 970.822 824.301 971.834 821.625 973.312C818.833 974.044 817.691 973.796 815 973C816.455 972.162 817.914 971.329 819.375 970.5C820.593 969.804 820.593 969.804 821.836 969.094C824 968 824 968 826 968Z" fill="#5C55FB"/>
<path d="M617 509C617.66 509.33 618.32 509.66 619 510C616.69 512.64 614.38 515.28 612 518C611.67 517.34 611.34 516.68 611 516C612.98 513.69 614.96 511.38 617 509Z" fill="#E4E5FE"/>
<path d="M987 552C989.475 552.99 989.475 552.99 992 554C992 554.66 992 555.32 992 556C992.66 556 993.32 556 994 556C994.33 556.99 994.66 557.98 995 559C994.01 559.495 994.01 559.495 993 560C988.125 555.375 988.125 555.375 987 552Z" fill="#5E54FC"/>
<path d="M1015 532C1015.33 532 1015.66 532 1016 532C1016.33 534.97 1016.66 537.94 1017 541C1015.35 539.35 1013.7 537.7 1012 536C1012.99 535.67 1013.98 535.34 1015 535C1015 534.01 1015 533.02 1015 532Z" fill="#ECECFD"/>
<path d="M473 955C473.66 955 474.32 955 475 955C474.01 957.97 473.02 960.94 472 964C471.34 963.67 470.68 963.34 470 963C471.875 957.25 471.875 957.25 473 955Z" fill="#574FFC"/>
<path d="M330 450C330.66 450.99 331.32 451.98 332 453C331.01 454.485 331.01 454.485 330 456C329.34 456 328.68 456 328 456C328 456.99 328 457.98 328 459C327.34 459 326.68 459 326 459C327.199 455.917 328.477 452.937 330 450Z" fill="#635CFB"/>
</g>
<defs>
<clipPath id="clip0_66_26">
<rect width="1254" height="1254" rx="256" fill="white"/>
</clipPath>
</defs>
</svg>
